<?xml version="1.0" encoding="UTF-8"?>
<svg id="Layer_1" data-name="Layer 1" xmlns="http://www.w3.org/2000/svg" viewBox="0 0 1208.25 313.17">
  <defs>
    <style>
      .cls-1 {
        fill: #53427d;
      }

      .cls-2 {
        fill: #5c4d80;
      }

      .cls-3 {
        fill: #54427d;
      }

      .cls-4 {
        fill: #7fb679;
      }

      .cls-5 {
        fill: #7eb879;
      }

      .cls-6 {
        fill: #63a059;
      }

      .cls-7 {
        fill: #7fba7a;
      }

      .cls-8 {
        fill: #54447a;
      }

      .cls-9 {
        fill: #53437c;
      }

      .cls-10 {
        fill: #55447e;
      }
    </style>
  </defs>
  <path class="cls-1" d="M573.42,227.01c-53.44-30.5-56.24-107.29-6.68-143.43,37.75-27.53,92.77-19.52,120.15,18.48,53.77,74.64-30.19,172.48-113.46,124.95ZM650.47,123.98c-35.63-42.32-103.66,10.8-67.39,56.89,35.92,45.66,106.29-10.69,67.39-56.89Z"/>
  <path class="cls-3" d="M727.88,142.77c9.48-86.16,123.44-104.28,162.33-28.23,6.55,13.46,8.13,22.13,7.65,38.83.02,16.86-.01,38.81,0,53.92.55,13.71-1.03,24.32-14.27,28.82-9.09,3.19-19.42-3.33-23.26-12.23-3.64-7.56-4.08-16.18-4.04-24.45.04-29.2,6.44-72.38-26.57-85.86-15.93-6.31-35.82-2.58-47.77,9.9-18.48,19.08-11.45,52.78-12.2,77.38.09,10.77-1.06,23.46-9.18,31.19-13.47,12.17-31.77.7-32.06-16.17-.37-11.91.6-23.67.34-35.72.25-12.49-.72-24.96-.99-37.23v-.17Z"/>
  <path class="cls-10" d="M1026.65,234.24c-12.4,7.99-32.39,3.03-48.57,4.37-16.35-1.14-31,3.07-44.8-3.81-11.86-9.81-7.9-28.06-8.55-41.97.46-33.68-1.17-67.77.32-101.35.54-16.38,13.79-23.57,28.45-23.43,22.01.03,46.25-2.32,67.8,2.32,12.33,4.31,13.75,18.85,13.93,30.27.88,35.05.1,70.29.18,105.44.3,9.49-1.44,22.18-8.66,28.08l-.1.09ZM1009.25,76.61c-.56-5.14-23-3.03-29.31-3.47-4.9,0-9.83,0-14.26,0-5.71.2-10.39-.43-15.1,1.53-5.19,3.53,6.77,9.38,13.71,11.05,12.87,2.72,28.02,3.11,39.13-2.74,2.42-1.24,6.16-4.09,5.84-6.29v-.08ZM974.24,122.62c-20.23,2.58-33.05,21.22-31.09,40.86,1.84,23.63,23.61,37.08,46.16,32.07,44.05-11.51,31.9-80.07-14.86-72.97l-.21.03Z"/>
  <path class="cls-9" d="M432.77,70.45c-2.36,1.97-11.83,1.42-14.5,2.65-.34.16-5.8,3.59-6.18,3.86-3.95,2.85-5.88,12.33-5.85,16.93.03,5.96,4.66,11.39,8.79,15.51-22.03-3.81-49.4,11.75-52.74,34.76-7.74,53.31,56.73,73.15,80.19,35.28,3.68-5.94,5.76-12.74,6.37-19.71l1.17-13.34c6.72,13.61,14.5,28.31,20.99,43.51,2.94,6.89,2.97,5.45,4.01,13.49.05.36.02.61.13.75-31.23,39.84-84.58,47.22-124.61,15.22-69.6-55.64-7.91-172.7,82.21-148.91Z"/>
  <path class="cls-9" d="M131.72,78.34c.46.34,1.3,23.92.33,34.6l-1.55,29.94c-7.66-31.54-46.82-43.4-71.51-23-35.02,28.94-7.28,87.81,42.29,76.53-.05.58-5.57,3.46-6.45,4.48-3.65,4.2-5.94,8.69-5.93,14.25,0,3.37.5,6.71.75,7.7.04.15,0,.65.51,1.56,2.17,3.84,5.66,6.77,9.82,8.23,3.58,1.27,11.17,3.06,13.39,4.03C16.59,259.04-38.08,147.54,30.99,87.88c30.04-25.94,80.23-24.66,100.73-9.55Z"/>
  <path class="cls-9" d="M324.86,89.13c-1.16,12.05-9.09,24.46-15.17,35.63-20,35.81-39.03,75.81-60.44,111.46-7.68,12.47-16.03,27.03-28.08,33.65-13.69,7.4-26.48-3.19-24.78-19.13.6-8.07,3.99-16.69,7.74-24.55,9.11-18.32,19.48-36.93,29.99-55.46,2.18,3.28,4.41,6.5,6.68,9.62,3.23,4.2,7.2,8.3,12.45,10.31,10.04,4.34,24.91-2.64,27.86-13.79,2.51-9.84-2.65-18.62-6.77-26.52-4.49-8.25-9.59-16.38-14.89-24.43,1.59-2.89,3.17-5.78,4.72-8.65,11.44-20.69,28.92-55.41,50.67-47.94l.17.07c6.81,2.77,10.78,10.59,9.85,19.73Z"/>
  <path class="cls-6" d="M281.11,176.87c-2.95,11.15-17.82,18.13-27.86,13.79-5.25-2.01-9.22-6.11-12.45-10.31-2.27-3.12-4.5-6.34-6.68-9.62,8.55-15.05,17.19-30.05,25.33-44.81,5.3,8.05,10.4,16.18,14.89,24.43,4.12,7.9,9.28,16.68,6.77,26.52Z"/>
  <path class="cls-5" d="M259.45,125.92c-8.14,14.76-16.78,29.76-25.33,44.81-11.67-17.55-22.19-36.97-33.39-54.35-7.59-12.18-21.34-31.39-3.35-45.34l.15-.1c5.93-4.29,13.69-5.56,19.47-3.1,7.67,3.19,11.59,11.25,15.74,17.76,8.19,13.33,17.74,26.71,26.71,40.32Z"/>
  <path class="cls-6" d="M557.83,248.63c12.65-1.36,18.31,8.03,27.91,13.57,15.01,8.67,40.23,10.13,56.29,3.67,15.93-6.41,30.96-29.69,47.99-8.95,21.39,26.04-28,49.15-47.6,53.35-27.21,5.82-52.72,3.23-76.88-10.86-6.28-3.66-20.26-13.33-23.52-19.48-6.69-12.62,1.53-29.76,15.81-31.29Z"/>
  <path class="cls-6" d="M131.72,78.34c1.27-.69,4.88,3.27,7.32,5.11,18.54,14.65,32.42,36.46,33.87,60.05.52,8.45.62,18.86-1.14,27.19-2.47,10.74-7.57,21.04-12.58,30.83-8.14,13.11-21.09,24.7-34.94,31.23-9.44,5.06-20.68,6.78-29.32-.74-3.73-2.97-5.45-8.18-5.93-13.11-1.08-8.11,1.81-16.08,9.03-20.37,4.89-3.38,10.68-6.03,15.44-9.73,10.83-8.32,16.4-21.26,17.26-34.63.26-6-.49-11.47-.29-17.52.37-11.93,1.27-58.3,1.27-58.3Z"/>
  <path class="cls-6" d="M427.37,69.66c2.52,0,5.22.63,7.68,1.51,27.23,9.44,42,29.17,52.63,55.51,1.49,5.54,1.61,11.24,2.19,16.9.79,9.73.85,19.82-1.24,29.42-1.94,9.17-7.93,20.98-12.3,29.25-1.6,3.06-.96,2.43-2.17-2.13-.7-2.52-1.6-5.02-2.72-7.59-6.81-16.58-22.67-48.14-22.67-48.14l-4.79-8.07c-5.74-9.68-13.91-17.75-23.81-23.11-4.95-2.68-9.93-6.3-12.28-10.77-4.26-6.25-2.13-15,.92-21.9,3.17-6.96,11.01-10.59,18.36-10.87h.2Z"/>
  <path class="cls-4" d="M1140.53,111.3c5.64.12,10.7.22,15.22.25,10.41.09,26.29-.3,26.99-.33,2.46-.12,11.58-.16,12.05.59.21.34-3.47,4.37-4.91,6.06-18.35,21.07-62.82,70.47-69.27,76.73-.61.6-54.7.05-54.03-.47"/>
  <path class="cls-8" d="M1140.67,111.38c-1.17,0-2.13.01-2.62.01-.67,0-1.33,0-2,0-4.99.01-10.01.02-15,0-.33,0-.67,0-1,0-14.15-.07-31.9,1.38-45.51,0-8.98-.9-18.81-9.19-19.43-18.66-.91-13.97,7.9-23,21.45-24.34,34.11.78,68.41-1.08,102.49,0"/>
  <path class="cls-8" d="M1120.6,194.6c1.17,0,2.13-.01,2.62-.01.67,0,1.33,0,2,0,4.99-.01,10.01-.02,15,0,.33,0,.67,0,1,0,14.15.07,31.9-1.38,45.51,0,8.98.9,18.81,9.19,19.43,18.66.91,13.97-7.9,23-21.45,24.34-34.11-.78-68.41,1.08-102.49,0"/>
  <path class="cls-5" d="M162.15,2.8c8.09,4.7,10.36,14.83,10.43,23.64.81,34.47.6,69.28.43,103.88-.12,2.57.16,19.01.16,19.01,0,0,.32-8.85-5.1-23.78s-11.25-24.28-19.87-33.6c-7.96-8.61-16.08-13.2-16.49-13.61-.31-.31-.15-41.73-.07-49.76-.09-8.22.45-15.27,5.96-21.72,5.88-7.3,16.34-8.91,24.38-4.16l.16.1Z"/>
  <path class="cls-7" d="M487.67,126.67c.63.1,24.32,48.09,33.89,69.94,3.78,8.91,9.03,19.08,5.14,28.79-3.75,10.16-15.34,15.81-25.81,13.23-13.93-2.87-16.77-17.88-23.4-29.73-.94-1.76-2.34-4.82-2.34-4.82,0-.5,1.25-3.94,2.01-5.47,1.69-3.3,3.51-6.64,5.05-10.07,8.66-18.78,8.53-36.44,6.22-56.54-.09-1.14-.77-5.34-.77-5.34Z"/>
  <path class="cls-6" d="M1179.05,68.4c5.5-.86,12.89.59,17.75,2.93,4.41,2.25,7.91,6.71,9.88,11.29,3.66,8.52.44,14.64-4.81,21.52-1.46,1.89-3.38,3.76-7.09,7.67,0,0-13.51-.39-15.74-.37-9.94.08-15.38.14-28.62.09-2.63-.2-9.79-.04-9.76-.14"/>
  <path class="cls-6" d="M1082.3,237.53c-5.5.86-12.89-.59-17.75-2.93-4.41-2.25-7.91-6.71-9.88-11.29-3.66-8.52-.44-14.64,4.81-21.52,1.46-1.89,3.38-3.76,7.09-7.67,0,0,13.51.39,15.74.37,9.94-.08,15.38-.14,28.62-.09,2.63.2,9.79.04,9.76.14"/>
  <path class="cls-7" d="M665.41,60.04c-2.9-2.96-5.01-6.94-5.4-11.09-3.56-37.29,49.61-33.85,43.6.5-3.35,19.16-25.12,23.95-38.2,10.59Z"/>
  <path class="cls-2" d="M977.85,134.62c10.09-.55,24.64,7.73,26.11,18.36,3.19,23.05-18.67,41.11-38.85,26.85-18.66-13.19-10.16-43.97,12.74-45.21ZM986.04,153.4c-.91-.9,3.13-12.99-7.39-11.99-7.93.75-3.28,10.67-4.6,11.99-.98.98-16.78-3.21-12.07,8.56,2.86,7.16,10.14,3.49,11.07,4.43.75.75-2.28,10.28,4.76,11.78,10.61,2.25,7.59-11.15,8.23-11.78.48-.47,9.98,1.35,11.79-4.7,3.53-11.74-10.6-7.1-11.79-8.29Z"/>
</svg>